# xmcd
#
# Track frame offsets: 
#        150
#        8169
#        21238
#        37953
#        52406
#        67323
#        70263
#        87596
#        101796
#        115296
#        129476
#        144506
#
# Disc length: 2192 seconds
#
# Revision: 1
# Processed by: cddbd v1.5.2PL0 Copyright (c) Steve Scherf et al.
# Submitted via: ExactAudioCopyFreeDBPlugin 1.0
#
DISCID=b5088e0c
DTITLE=Styles P - Float
DYEAR=2013
DGENRE=Rap
TTITLE0=Float (Intro)
TTITLE1=Manson Murder Feat. N.O.R.E.
TTITLE2=Bodies In The Basement
TTITLE3=Hater Love Feat. Sheek Louch
TTITLE4=Take It Back
TTITLE5=Haze Vs. Sour (Skit)
TTITLE6=I Need Weed
TTITLE7=Red Eye Feat. Jadakiss
TTITLE8=Reckless Feat. Raekwon
TTITLE9=Shoot You Down
TTITLE10=Open Up Feat. Bullpen
TTITLE11=Screw Y'All Feat. Scram Jones
EXTD=
EXTT0=
EXTT1=
EXTT2=
EXTT3=
EXTT4=
EXTT5=
EXTT6=
EXTT7=
EXTT8=
EXTT9=
EXTT10=
EXTT11=
PLAYORDER=
